# File created by Blade
# Date/Time:  Wed Jan 21 17:34:04 2015
# Frame Rate: 120.000 fps
#------------------------------------------------------
:FULLY-SPECIFIED
:DEGREES
864
root 19.692900 5.486498 -20.271211 -172.094055 -31.144771 -142.447433
Spine -17.198276 -7.906775 42.985780
Head -21.593165 -10.121246 2.682046
LeftShoulder -10.586690 -16.035287 5.979934
LeftArm -22.964194 2.847434 -82.869500
LeftForeArm 8.729578 -0.000000 -2.747548
LeftHand 9.664478 0.000000 -4.096876
LeftHandThumb1 -26.253704 0.000000 33.147579
RightShoulder -29.647213 -13.927725 10.513313
RightArm -42.529083 73.864295 25.250228
RightForeArm 8.074812 -0.000000 118.480006
RightHand -3.671991 -0.000000 -11.067434
RightHandThumb1 -24.326973 -0.000000 -32.862282
LeftUpLeg -99.427604 -23.527399 -52.688326
LeftLeg 136.801346 -0.000000 -0.000000
LeftFoot 29.250217 21.064863 3.969092
LeftToeBase 24.221856 -0.000000 -0.000000
RightUpLeg 15.692699 40.630911 -14.584000
RightLeg 132.278180 -0.000000 -0.000000
RightFoot 44.179759 -20.595130 -18.137767
RightToeBase 20.718141 -0.000000 -0.000000
865
root 19.693512 5.487722 -20.271691 -172.103849 -31.132588 -142.439457
Spine -17.230662 -7.882934 42.958216
Head -21.651832 -10.186961 2.813314
LeftShoulder -10.593706 -16.065711 6.026765
LeftArm -23.001022 2.801592 -82.870717
LeftForeArm 8.821003 -0.000000 -2.764435
LeftHand 9.673553 0.000000 -4.044701
LeftHandThumb1 -26.253704 0.000000 33.147579
RightShoulder -29.660252 -13.879926 10.526318
RightArm -42.583472 73.853947 25.185751
RightForeArm 8.069278 -0.000000 118.556618
RightHand -3.652952 -0.000000 -10.908329
RightHandThumb1 -24.326973 -0.000000 -32.862282
LeftUpLeg -99.440482 -23.513586 -52.676152
LeftLeg 136.805905 -0.000000 -0.000000
LeftFoot 29.265729 21.041910 4.002460
LeftToeBase 24.296970 -0.000000 -0.000000
RightUpLeg 15.695071 40.647140 -14.569243
RightLeg 132.323564 -0.000000 -0.000000
RightFoot 44.195763 -20.595748 -18.160238
RightToeBase 20.683348 -0.000000 -0.000000
866
root 19.694650 5.488987 -20.271611 -172.103761 -31.124372 -142.439855
Spine -17.289096 -7.864155 42.922179
Head -21.644121 -10.226406 2.933564
LeftShoulder -10.575031 -16.056027 6.072442
LeftArm -23.009271 2.733297 -82.865771
LeftForeArm 8.915900 -0.000000 -2.791150
LeftHand 9.671009 0.000000 -4.079121
LeftHandThumb1 -26.253704 0.000000 33.147579
RightShoulder -29.701606 -13.906859 10.555864
RightArm -42.339292 73.868221 25.430321
RightForeArm 8.044654 0.000000 118.618508
RightHand -3.588665 -0.000000 -10.736935
RightHandThumb1 -24.326973 -0.000000 -32.862282
LeftUpLeg -99.446952 -23.508927 -52.674113
LeftLeg 136.809392 -0.000000 -0.000000
LeftFoot 29.279042 21.009777 4.054131
LeftToeBase 24.254750 -0.000000 -0.000000
RightUpLeg 15.686539 40.659939 -14.576912
RightLeg 132.368524 -0.000000 -0.000000
RightFoot 44.222026 -20.584797 -18.220466
RightToeBase 20.696577 -0.000000 -0.000000
867
root 19.696201 5.490253 -20.273202 -172.110793 -31.123658 -142.434944
Spine -17.360044 -7.848623 42.900731
Head -21.616115 -10.313219 3.023935
LeftShoulder -10.580233 -15.994286 6.105351
LeftArm -22.960199 2.648944 -82.846062
LeftForeArm 9.037110 -0.000000 -2.809938
LeftHand 9.647856 -0.000000 -4.067319
LeftHandThumb1 -26.253704 0.000000 33.147579
RightShoulder -29.682424 -13.892209 10.563023
RightArm -42.494878 73.832793 25.270868
RightForeArm 8.103889 0.000000 118.693685
RightHand -3.587686 -0.000000 -10.720302
RightHandThumb1 -24.326973 -0.000000 -32.862282
LeftUpLeg -99.454189 -23.496640 -52.665689
LeftLeg 136.815089 -0.000000 -0.000000
LeftFoot 29.291525 21.002876 4.048804
LeftToeBase 24.280850 -0.000000 -0.000000
RightUpLeg 15.691154 40.669258 -14.557101
RightLeg 132.412323 -0.000000 -0.000000
RightFoot 44.263457 -20.705655 -18.145435
RightToeBase 20.501289 -0.000000 -0.000000
